<mxfile host="app.diagrams.net" modified="2024-02-12T13:25:08.390Z" agent="Mozilla/5.0 (Macintosh; Intel Mac OS X 10_15_7) AppleWebKit/537.36 (KHTML, like Gecko) Chrome/121.0.0.0 Safari/537.36" version="23.1.1" etag="-_6fJdvuLNRHxKPW45YZ" type="github">
  <diagram name="Page-1" id="C1YwDhpbuIAfifvhwkdZ">
    <mxGraphModel>
      <root>
        <mxCell id="0" />
        <mxCell id="1" parent="0" />
      </root>
    </mxGraphModel>
  </diagram>
</mxfile>
